#N canvas 484 169 325 227 10;
#X msg 41 79 devices;
#X obj 95 113 comport;
#X floatatom 95 60 5 0 0 0 - - -, f 5;
#X msg 95 79 open \$1;
#X obj 146 15 tgl 15 0 empty empty empty 17 7 0 10 -262144 -1 -1 0
1;
#X obj 146 35 metro 1000;
#X obj 146 57 f;
#X obj 172 57 == 0;
#X msg 146 79 print \$1;
#X msg 150 113 close;
#X connect 0 0 1 0;
#X connect 2 0 3 0;
#X connect 3 0 1 0;
#X connect 4 0 5 0;
#X connect 5 0 6 0;
#X connect 6 0 7 0;
#X connect 6 0 8 0;
#X connect 7 0 6 1;
#X connect 8 0 1 0;
#X connect 9 0 1 0;
