#N canvas 392 35 578 464 10;
#X msg 77 96 close;
#X obj 36 148 select 192;
#X obj 93 259 spigot;
#X msg 126 236 0;
#X msg 36 197 1;
#X obj 55 321 spigot;
#X msg 88 189 0;
#X obj 36 172 t b b b;
#X msg 36 27 devices;
#X obj 189 178 t f b;
#X msg 77 72 open \$1;
#X floatatom 77 51 5 0 0 0 - - -, f 5;
#X obj 36 219 t f f;
#X obj 36 125 comport 6 115200;
#X obj 189 200 t f f f f f f f f;
#X obj 189 272 & 128;
#X obj 189 317 tgl 15 0 empty empty empty 17 7 0 10 -262144 -1 -1 0
1;
#X obj 189 294 == 0;
#X obj 229 317 tgl 15 0 empty empty empty 17 7 0 10 -262144 -1 -1 1
1;
#X obj 229 294 == 0;
#X obj 229 272 & 64;
#X obj 269 317 tgl 15 0 empty empty empty 17 7 0 10 -262144 -1 -1 1
1;
#X obj 269 294 == 0;
#X obj 309 317 tgl 15 0 empty empty empty 17 7 0 10 -262144 -1 -1 0
1;
#X obj 309 294 == 0;
#X obj 269 272 & 32;
#X obj 309 272 & 16;
#X obj 349 317 tgl 15 0 empty empty empty 17 7 0 10 -262144 -1 -1 0
1;
#X obj 349 294 == 0;
#X obj 389 317 tgl 15 0 empty empty empty 17 7 0 10 -262144 -1 -1 0
1;
#X obj 389 294 == 0;
#X obj 429 317 tgl 15 0 empty empty empty 17 7 0 10 -262144 -1 -1 0
1;
#X obj 429 294 == 0;
#X obj 469 317 tgl 15 0 empty empty empty 17 7 0 10 -262144 -1 -1 1
1;
#X obj 469 294 == 0;
#X obj 349 272 & 8;
#X obj 389 272 & 4;
#X obj 429 272 & 2;
#X obj 469 272 & 1;
#X obj 55 289 repack 2;
#X obj 55 343 unpack;
#X obj 88 367 * 128;
#X obj 55 384 +;
#X connect 0 0 13 0;
#X connect 1 0 7 0;
#X connect 1 1 2 0;
#X connect 2 0 39 0;
#X connect 3 0 2 1;
#X connect 4 0 12 0;
#X connect 5 0 40 0;
#X connect 6 0 5 1;
#X connect 7 0 4 0;
#X connect 7 1 39 0;
#X connect 7 2 6 0;
#X connect 8 0 13 0;
#X connect 9 0 14 0;
#X connect 9 1 3 0;
#X connect 10 0 13 0;
#X connect 11 0 10 0;
#X connect 12 0 5 1;
#X connect 12 1 2 1;
#X connect 13 0 1 0;
#X connect 14 0 15 0;
#X connect 14 1 20 0;
#X connect 14 2 25 0;
#X connect 14 3 26 0;
#X connect 14 4 35 0;
#X connect 14 5 36 0;
#X connect 14 6 37 0;
#X connect 14 7 38 0;
#X connect 15 0 17 0;
#X connect 17 0 16 0;
#X connect 19 0 18 0;
#X connect 20 0 19 0;
#X connect 22 0 21 0;
#X connect 24 0 23 0;
#X connect 25 0 22 0;
#X connect 26 0 24 0;
#X connect 28 0 27 0;
#X connect 30 0 29 0;
#X connect 32 0 31 0;
#X connect 34 0 33 0;
#X connect 35 0 28 0;
#X connect 36 0 30 0;
#X connect 37 0 32 0;
#X connect 38 0 34 0;
#X connect 39 0 5 0;
#X connect 40 0 42 0;
#X connect 40 1 41 0;
#X connect 41 0 42 1;
#X connect 42 0 9 0;
