#N canvas 237 36 449 406 10;
#X msg 91 103 close;
#X obj 50 155 select 192;
#X obj 107 266 spigot;
#X msg 140 243 0;
#X msg 50 204 1;
#X obj 69 328 spigot;
#X msg 102 196 0;
#X obj 50 179 t b b b;
#X msg 50 34 devices;
#X obj 177 104 t f b;
#X obj 192 245 * 128;
#X obj 177 266 +;
#X floatatom 177 288 5 0 0 0 - - -;
#X msg 91 79 open \$1;
#X floatatom 91 58 5 0 0 0 - - -;
#X obj 50 132 comport 6 9600;
#X obj 69 296 repack 12;
#X obj 177 82 unpack f f f f f f f f f f f f;
#X obj 224 176 * 128;
#X obj 209 197 +;
#X floatatom 209 219 5 0 0 0 - - -;
#X obj 256 106 * 128;
#X obj 241 127 +;
#X floatatom 241 149 5 0 0 0 - - -;
#X obj 288 245 * 128;
#X obj 273 266 +;
#X floatatom 273 288 5 0 0 0 - - -;
#X obj 320 176 * 128;
#X obj 305 197 +;
#X floatatom 305 219 5 0 0 0 - - -;
#X obj 352 106 * 128;
#X obj 337 127 +;
#X floatatom 337 149 5 0 0 0 - - -;
#X obj 50 226 t f f;
#X connect 0 0 15 0;
#X connect 1 0 7 0;
#X connect 1 1 2 0;
#X connect 2 0 16 0;
#X connect 3 0 2 1;
#X connect 4 0 33 0;
#X connect 5 0 17 0;
#X connect 6 0 5 1;
#X connect 7 0 4 0;
#X connect 7 1 16 0;
#X connect 7 2 6 0;
#X connect 8 0 15 0;
#X connect 9 0 11 0;
#X connect 9 1 3 0;
#X connect 10 0 11 1;
#X connect 11 0 12 0;
#X connect 13 0 15 0;
#X connect 14 0 13 0;
#X connect 15 0 1 0;
#X connect 16 0 5 0;
#X connect 17 0 9 0;
#X connect 17 1 10 0;
#X connect 17 2 19 0;
#X connect 17 3 18 0;
#X connect 17 4 22 0;
#X connect 17 5 21 0;
#X connect 17 6 25 0;
#X connect 17 7 24 0;
#X connect 17 8 28 0;
#X connect 17 9 27 0;
#X connect 17 10 31 0;
#X connect 17 11 30 0;
#X connect 18 0 19 1;
#X connect 19 0 20 0;
#X connect 21 0 22 1;
#X connect 22 0 23 0;
#X connect 24 0 25 1;
#X connect 25 0 26 0;
#X connect 27 0 28 1;
#X connect 28 0 29 0;
#X connect 30 0 31 1;
#X connect 31 0 32 0;
#X connect 33 0 5 1;
#X connect 33 1 2 1;
