#N canvas 53 50 429 540 10;
#X msg 42 356 devices;
#X floatatom 96 337 5 0 0 0 - - -;
#X msg 96 357 open \$1;
#X msg 151 357 close;
#X text 26 11 option 1;
#X floatatom 32 187 3 0 0 0 - - -;
#X text 199 11 option 2;
#X text 270 289 add a line feed or new line character with its decimal
value;
#X obj 32 49 vsl 20 128 2.54 254 1 0 empty empty empty 0 -9 0 10 -262144
-1 -1 0 1;
#X floatatom 201 185 3 0 0 0 - - -;
#X obj 201 47 vsl 20 128 2.54 254 1 0 empty empty empty 0 -9 0 10 -262144
-1 -1 0 1;
#X obj 165 264 list fromsymbol;
#X symbolatom 165 242 10 0 0 0 - - -;
#X obj 165 221 makefilename %i;
#X obj 165 289 list append 10;
#X obj 240 335 print list;
#X obj 96 390 comport 3;
#X connect 0 0 16 0;
#X connect 1 0 2 0;
#X connect 2 0 16 0;
#X connect 3 0 16 0;
#X connect 5 0 16 0;
#X connect 8 0 5 0;
#X connect 9 0 13 0;
#X connect 10 0 9 0;
#X connect 11 0 14 0;
#X connect 12 0 11 0;
#X connect 13 0 12 0;
#X connect 14 0 15 0;
#X connect 14 0 16 0;
