#N canvas 147 60 952 798 10;
#X msg 91 103 close;
#X msg 50 34 devices;
#X msg 91 79 open \$1;
#X floatatom 91 58 5 0 0 0 - - -;
#X obj 50 188 select 13;
#X msg 51 210 flush;
#X obj 50 162 t i i;
#X obj 50 131 comport 3 9600;
#X floatatom 53 327 5 0 0 0 - - -;
#X obj 52 273 sprintf %c%c%c%c%c%c;
#X obj 51 245 flow.group @by 6;
#X obj 109 327 print rawlist;
#X connect 0 0 7 0;
#X connect 1 0 7 0;
#X connect 2 0 7 0;
#X connect 3 0 2 0;
#X connect 4 0 5 0;
#X connect 5 0 10 0;
#X connect 6 0 4 0;
#X connect 6 1 10 0;
#X connect 7 0 6 0;
#X connect 9 0 8 0;
#X connect 10 0 9 0;
#X connect 10 0 11 0;
