#N canvas 385 67 328 284 10;
#X msg 41 79 devices;
#X floatatom 95 60 5 0 0 0 - - -;
#X msg 95 79 open \$1;
#X obj 67 13 tgl 15 0 empty empty empty 17 7 0 10 -262144 -1 -1 1 1
;
#X msg 150 80 close;
#X obj 95 113 comport 3;
#X connect 0 0 5 0;
#X connect 1 0 2 0;
#X connect 2 0 5 0;
#X connect 3 0 5 0;
#X connect 4 0 5 0;
