#N canvas 134 105 952 798 10;
#X msg 91 103 close;
#X msg 50 34 devices;
#X msg 91 79 open \$1;
#X floatatom 91 58 5 0 0 0 - - -;
#X obj 92 188 select 13;
#X msg 93 210 flush;
#X obj 50 162 t i i;
#X obj 50 131 comport 3 9600;
#X floatatom 43 350 5 0 0 0 - - -;
#X floatatom 80 350 5 0 0 0 - - -;
#X obj 52 310 unpack f f f f f f;
#X floatatom 116 350 5 0 0 0 - - -;
#X floatatom 153 350 5 0 0 0 - - -;
#X floatatom 191 350 5 0 0 0 - - -;
#X floatatom 228 350 5 0 0 0 - - -;
#X obj 51 245 flow.group @by 200;
#X obj 52 273 sprintf %c%c%c%c%c%c%c%c%c%c%c%c%c%c%c%c%c%c%c%c%c%c%c%c%c%c%c
;
#X obj 304 360 prepend set;
#X msg 302 385 10 51 32 48 13;
#X connect 0 0 7 0;
#X connect 1 0 7 0;
#X connect 2 0 7 0;
#X connect 3 0 2 0;
#X connect 4 0 5 0;
#X connect 5 0 15 0;
#X connect 6 0 4 0;
#X connect 6 1 15 0;
#X connect 7 0 6 0;
#X connect 10 0 8 0;
#X connect 10 1 9 0;
#X connect 10 2 11 0;
#X connect 10 3 12 0;
#X connect 10 4 13 0;
#X connect 10 5 14 0;
#X connect 15 0 16 0;
#X connect 15 0 17 0;
#X connect 16 0 10 0;
#X connect 17 0 18 0;
