#N canvas 264 94 445 239 10;
#X floatatom 161 65 5 0 0 2 LED - -;
#X obj 161 84 pack;
#X msg 161 108 print \$1l\$2s;
#X obj 23 146 comport 6 115200;
#X obj 199 69 tgl 15 0 empty empty state 17 7 0 10 -262144 -1 -1 0
1;
#X msg 256 64 print C;
#X msg 256 85 print S;
#X msg 256 106 print I;
#X text 304 84 all LEDs on;
#X text 306 62 all LEDs off;
#X text 306 106 invert LEDs;
#X msg 23 57 devices;
#X msg 77 100 close;
#X floatatom 77 57 5 0 0 0 - - -;
#X msg 77 78 open \$1;
#X obj 77 123 r toComport;
#X obj 161 140 s toComport;
#X connect 0 0 1 0;
#X connect 1 0 2 0;
#X connect 2 0 16 0;
#X connect 4 0 1 1;
#X connect 5 0 16 0;
#X connect 6 0 16 0;
#X connect 7 0 16 0;
#X connect 11 0 3 0;
#X connect 12 0 3 0;
#X connect 13 0 14 0;
#X connect 14 0 3 0;
#X connect 15 0 3 0;
