#N canvas 192 22 458 396 10;
#X msg 47 76 close;
#X obj 6 128 select 192;
#X obj 63 239 spigot;
#X msg 96 215 0;
#X msg 6 177 1;
#X obj 25 301 spigot;
#X msg 58 169 0;
#X obj 6 152 t b b b;
#X msg 6 7 devices;
#X obj 149 129 t f b;
#X obj 164 270 * 128;
#X obj 149 291 +;
#X floatatom 149 313 5 0 0 0 - - -;
#X msg 47 52 open \$1;
#X floatatom 47 31 5 0 0 0 - - -;
#X obj 6 105 comport 6 9600;
#X obj 149 107 unpack f f f f f f f f f f f f;
#X obj 196 201 * 128;
#X obj 181 222 +;
#X floatatom 181 244 5 0 0 0 - - -;
#X obj 228 131 * 128;
#X obj 213 152 +;
#X floatatom 213 174 5 0 0 0 - - -;
#X obj 260 270 * 128;
#X obj 245 291 +;
#X floatatom 245 313 5 0 0 0 - - -;
#X obj 292 201 * 128;
#X obj 277 222 +;
#X floatatom 277 244 5 0 0 0 - - -;
#X obj 324 131 * 128;
#X obj 309 152 +;
#X floatatom 309 174 5 0 0 0 - - -;
#X obj 6 199 t f f;
#X obj 25 269 repack 24;
#X obj 149 7 list split 12;
#X obj 186 43 unpack f f f f f f f f f f f f;
#X obj 186 66 tgl 15 0 empty empty empty 17 7 0 10 -262144 -1 -1 0
1;
#X obj 202 66 tgl 15 0 empty empty empty 17 7 0 10 -262144 -1 -1 0
1;
#X obj 218 66 tgl 15 0 empty empty empty 17 7 0 10 -262144 -1 -1 0
1;
#X obj 234 66 tgl 15 0 empty empty empty 17 7 0 10 -262144 -1 -1 0
1;
#X obj 250 66 tgl 15 0 empty empty empty 17 7 0 10 -262144 -1 -1 0
1;
#X obj 266 66 tgl 15 0 empty empty empty 17 7 0 10 -262144 -1 -1 0
1;
#X obj 282 66 tgl 15 0 empty empty empty 17 7 0 10 -262144 -1 -1 0
1;
#X obj 298 66 tgl 15 0 empty empty empty 17 7 0 10 -262144 -1 -1 0
1;
#X obj 314 66 tgl 15 0 empty empty empty 17 7 0 10 -262144 -1 -1 0
1;
#X obj 330 66 tgl 15 0 empty empty empty 17 7 0 10 -262144 -1 -1 0
1;
#X obj 346 66 tgl 15 0 empty empty empty 17 7 0 10 -262144 -1 -1 0
1;
#X obj 363 66 tgl 15 0 empty empty empty 17 7 0 10 -262144 -1 -1 0
1;
#X text 197 27 digital pins;
#X text 155 89 analog pins;
#X connect 0 0 15 0;
#X connect 1 0 7 0;
#X connect 1 1 2 0;
#X connect 2 0 33 0;
#X connect 3 0 2 1;
#X connect 4 0 32 0;
#X connect 5 0 34 0;
#X connect 6 0 5 1;
#X connect 7 0 4 0;
#X connect 7 1 33 0;
#X connect 7 2 6 0;
#X connect 8 0 15 0;
#X connect 9 0 11 0;
#X connect 9 1 3 0;
#X connect 10 0 11 1;
#X connect 11 0 12 0;
#X connect 13 0 15 0;
#X connect 14 0 13 0;
#X connect 15 0 1 0;
#X connect 16 0 9 0;
#X connect 16 1 10 0;
#X connect 16 2 18 0;
#X connect 16 3 17 0;
#X connect 16 4 21 0;
#X connect 16 5 20 0;
#X connect 16 6 24 0;
#X connect 16 7 23 0;
#X connect 16 8 27 0;
#X connect 16 9 26 0;
#X connect 16 10 30 0;
#X connect 16 11 29 0;
#X connect 17 0 18 1;
#X connect 18 0 19 0;
#X connect 20 0 21 1;
#X connect 21 0 22 0;
#X connect 23 0 24 1;
#X connect 24 0 25 0;
#X connect 26 0 27 1;
#X connect 27 0 28 0;
#X connect 29 0 30 1;
#X connect 30 0 31 0;
#X connect 32 0 5 1;
#X connect 32 1 2 1;
#X connect 33 0 5 0;
#X connect 34 0 16 0;
#X connect 34 1 35 0;
#X connect 35 0 36 0;
#X connect 35 1 37 0;
#X connect 35 2 38 0;
#X connect 35 3 39 0;
#X connect 35 4 40 0;
#X connect 35 5 41 0;
#X connect 35 6 42 0;
#X connect 35 7 43 0;
#X connect 35 8 44 0;
#X connect 35 9 45 0;
#X connect 35 10 46 0;
#X connect 35 11 47 0;
