#N canvas 90 81 609 665 10;
#X msg 35 25 devices;
#X obj 35 127 comport;
#X floatatom 66 51 5 0 0 0 - - -;
#X msg 66 72 open \$1;
#X msg 75 96 close;
#X obj 77 181 select 13;
#X msg 78 203 flush;
#X obj 35 155 t i i;
#X obj 36 238 flow.group @by 200;
#X obj 37 266 sprintf %c%c%c%c%c%c%c%c%c%c%c%c%c%c%c%c%c%c%c%c%c%c%c%c%c%c%c
;
#X obj 37 310 route 1 2 3 4 5;
#X obj 118 341 tgl 20 0 empty empty empty 17 7 0 10 -262144 -1 -1 0
1;
#X obj 38 341 tgl 20 0 empty empty empty 17 7 0 10 -262144 -1 -1 0
1;
#X obj 64 341 tgl 20 0 empty empty empty 17 7 0 10 -262144 -1 -1 0
1;
#X obj 91 341 tgl 20 0 empty empty empty 17 7 0 10 -262144 -1 -1 0
1;
#X obj 208 351 prepend set;
#X msg 206 376 10 51 32 48 13;
#X connect 0 0 1 0;
#X connect 1 0 7 0;
#X connect 2 0 3 0;
#X connect 3 0 1 0;
#X connect 4 0 1 0;
#X connect 5 0 6 0;
#X connect 6 0 8 0;
#X connect 7 0 5 0;
#X connect 7 1 8 0;
#X connect 8 0 9 0;
#X connect 8 0 15 0;
#X connect 9 0 10 0;
#X connect 10 0 12 0;
#X connect 10 1 13 0;
#X connect 10 2 14 0;
#X connect 10 3 11 0;
#X connect 15 0 16 0;
